# xmcd
#
# Track frame offsets:
#	150
#	2757
#	21912
#	44332
#	61242
#	79900
#	100740
#	121840
#	145400
#	163625
#	186517
#	207990
#
# Disc length: 2825 seconds
#
# Revision: 1
# Processed by: cddbd v1.5PL3 Copyright (c) Steve Scherf et al.
# Submitted via: CDex 1.50Beta5
#
DISCID=a20b070c
DTITLE=ribbon - Jessica
DYEAR=1991
DGENRE=Pop
TTITLE0=KING OF AOBADAI
TTITLE1=Moon Venus
TTITLE2=LADY LOVE
TTITLE3=ポイズンの退屈
TTITLE4=ゆるせない!!
TTITLE5=愛してJustice
TTITLE6=HAPPY END
TTITLE7=卒業旅行
TTITLE8=太陽の行方
TTITLE9=真夏のフェミニスト
TTITLE10=旅の往復券
TTITLE11=Jessicaのテーマ
EXTD=
EXTT0=
EXTT1=
EXTT2=
EXTT3=
EXTT4=
EXTT5=
EXTT6=
EXTT7=
EXTT8=
EXTT9=
EXTT10=
EXTT11=
PLAYORDER=
